<svg width="16" height="17" viewBox="0 0 16 17" fill="none" xmlns="http://www.w3.org/2000/svg">
<path d="M8.66699 4.83268C8.66699 4.46449 8.36851 4.16602 8.00033 4.16602C7.63213 4.16602 7.33366 4.46449 7.33366 4.83268V8.49935C7.33366 8.67616 7.4039 8.84573 7.52892 8.97075L9.52892 10.9708C9.78927 11.2311 10.2114 11.2311 10.4717 10.9708C10.7321 10.7104 10.7321 10.2883 10.4717 10.0279L8.66699 8.22321V4.83268Z" fill="#787A80"/>
<path fill-rule="evenodd" clip-rule="evenodd" d="M8.00033 1.16602C3.95024 1.16602 0.666992 4.44926 0.666992 8.49935C0.666992 12.5494 3.95024 15.8327 8.00033 15.8327C12.0504 15.8327 15.3337 12.5494 15.3337 8.49935C15.3337 4.44926 12.0504 1.16602 8.00033 1.16602ZM2.00033 8.49935C2.00033 5.18564 4.68662 2.49935 8.00033 2.49935C11.314 2.49935 14.0003 5.18564 14.0003 8.49935C14.0003 11.8131 11.314 14.4993 8.00033 14.4993C4.68662 14.4993 2.00033 11.8131 2.00033 8.49935Z" fill="#787A80"/>
</svg>
