<svg width="514" height="890" viewBox="0 0 514 890" fill="none" xmlns="http://www.w3.org/2000/svg">
<g opacity="0.4">
<path d="M-134.699 251.203C-140.008 258.456 -145.601 265.825 -151.281 273.308C-169.623 297.474 -188.867 322.826 -202.321 349.271C-219.928 383.878 -227.563 420.252 -210.263 458.134C-193.469 494.909 -159.525 508.744 -120.721 518.151C-111.023 520.502 -101.032 522.575 -90.9355 524.661L-90.2159 524.81C-80.3574 526.846 -70.4037 528.903 -60.5453 531.249C-40.3498 536.055 -20.5256 542.082 -2.67146 551.672C16.9009 562.184 34.876 577.419 52.0733 594.058C60.6733 602.378 69.0843 611.056 77.4053 619.674C77.9521 620.24 78.4986 620.806 79.0446 621.372C86.81 629.417 94.5021 637.386 102.21 644.949C135.246 677.365 168.391 702.138 208.337 693.463C250.974 684.203 285.269 652.054 307.934 610.726C330.598 569.402 341.596 518.963 337.678 473.247C334.299 433.819 308.417 405.733 276.438 379.654C266.786 371.783 256.604 364.114 246.327 356.373C239.569 351.284 232.771 346.163 226.055 340.934C209.146 327.768 192.804 313.944 179.133 298.3C166.024 283.3 155.01 265.646 144.703 247.452C140.617 240.24 136.646 232.95 132.699 225.705C126.677 214.65 120.712 203.701 114.484 193.292C93.8697 158.84 70.557 130.652 33.4684 125.103C-5.13843 119.328 -36.1882 135.816 -63.1036 161.296C-85.0455 182.068 -104.187 208.764 -122.397 234.161C-126.539 239.937 -130.632 245.647 -134.699 251.203Z" stroke="#00F0B5"/>
<path d="M-93.9678 292.499C-98.1497 298.212 -102.555 304.017 -107.028 309.91C-121.469 328.935 -136.612 348.885 -147.2 369.697C-161.056 396.929 -167.054 425.533 -153.452 455.319C-140.251 484.225 -113.57 495.108 -83.0237 502.514C-75.3904 504.364 -67.5257 505.995 -59.5761 507.638L-59.0107 507.755C-51.2486 509.358 -43.4095 510.978 -35.6454 512.826C-19.7412 516.61 -4.12218 521.359 9.94727 528.915C25.3705 537.199 39.5314 549.202 53.0741 562.305C59.8466 568.858 66.4702 575.691 73.0215 582.476C73.452 582.922 73.8821 583.368 74.312 583.813C80.4262 590.147 86.4817 596.421 92.5496 602.375C118.562 627.899 144.619 647.36 176.009 640.543C209.538 633.261 236.518 607.976 254.355 575.454C272.19 542.935 280.844 503.243 277.761 467.27C275.105 436.272 254.757 414.182 229.583 393.653C221.985 387.457 213.971 381.421 205.881 375.328C200.561 371.32 195.207 367.288 189.916 363.168C176.601 352.8 163.728 341.911 152.958 329.587C142.629 317.768 133.953 303.861 125.837 289.535C122.618 283.853 119.49 278.112 116.383 272.407C111.643 263.705 106.948 255.088 102.045 246.894C85.8166 219.771 67.484 197.618 38.3352 193.257C7.98401 188.717 -16.4312 201.676 -37.6101 221.725C-54.8778 238.072 -69.9411 259.081 -84.2785 279.077C-87.54 283.625 -90.764 288.122 -93.9678 292.499Z" stroke="#00F0B5"/>
<path d="M-64.5398 322.332C-67.9079 326.934 -71.4553 331.608 -75.0563 336.352C-86.6777 351.663 -98.858 367.71 -107.376 384.452C-118.52 406.356 -123.337 429.345 -112.406 453.282C-101.801 476.503 -80.3686 485.253 -55.7882 491.212C-49.6464 492.7 -43.3181 494.013 -36.9197 495.335L-36.4658 495.429C-30.2183 496.72 -23.9072 498.023 -17.6562 499.511C-4.85247 502.558 7.72816 506.382 19.0631 512.47C31.4884 519.143 42.8936 528.812 53.7956 539.36C59.2478 544.635 64.5799 550.136 69.8527 555.597C70.1995 555.956 70.5461 556.315 70.8925 556.674C75.8133 561.772 80.6856 566.819 85.5679 571.61C106.506 592.156 127.443 607.778 152.649 602.304C179.598 596.451 201.294 576.126 215.641 549.965C229.987 523.808 236.948 491.881 234.468 462.947C232.334 438.04 215.986 420.284 195.728 403.764C189.613 398.777 183.167 393.922 176.657 389.019C172.375 385.794 168.065 382.547 163.804 379.23C153.085 370.884 142.719 362.115 134.044 352.189C125.724 342.669 118.738 331.469 112.204 319.937C109.612 315.36 107.094 310.738 104.593 306.147C100.778 299.145 97.0025 292.213 93.0569 285.619C79.9966 263.792 65.2621 245.999 41.85 242.497C17.4638 238.849 -2.15775 249.257 -19.1919 265.383C-33.0824 278.533 -45.1993 295.432 -56.7386 311.526C-59.3642 315.187 -61.9599 318.807 -64.5398 322.332Z" stroke="#00F0B5"/>
</g>
</svg>
