<svg width="40" height="40" viewBox="0 0 40 40" fill="none" xmlns="http://www.w3.org/2000/svg">
<path d="M31.2501 11.875H20C19.5685 11.875 19.2188 12.2248 19.2188 12.6562C19.2188 13.0877 19.5685 13.4375 20 13.4375H31.2501C31.6816 13.4375 32.0314 13.0877 32.0314 12.6562C32.0314 12.2248 31.6816 11.875 31.2501 11.875Z" fill="#7772F1"/>
<path d="M28.5172 15.8539C28.3719 15.7086 28.1703 15.625 27.9648 15.625C27.7594 15.625 27.5578 15.7086 27.4125 15.8539C27.2672 15.9992 27.1836 16.2008 27.1836 16.4062C27.1836 16.6117 27.2672 16.8133 27.4125 16.9586C27.5578 17.1039 27.7594 17.1875 27.9648 17.1875C28.1703 17.1875 28.3719 17.1039 28.5172 16.9586C28.6625 16.8133 28.7461 16.6117 28.7461 16.4062C28.7461 16.2008 28.6625 15.9992 28.5172 15.8539Z" fill="#7772F1"/>
<path d="M20.5514 3.58828C20.4061 3.44297 20.2045 3.35938 19.999 3.35938C19.7936 3.35938 19.592 3.44297 19.4467 3.58828C19.3014 3.73359 19.2178 3.93516 19.2178 4.14062C19.2178 4.34609 19.3014 4.54765 19.4467 4.69297C19.592 4.83828 19.7936 4.92187 19.999 4.92187C20.2045 4.92187 20.4061 4.83828 20.5514 4.69297C20.6967 4.54765 20.7803 4.34609 20.7803 4.14062C20.7803 3.93516 20.6967 3.73359 20.5514 3.58828Z" fill="#7772F1"/>
<path d="M24.6779 15.625H20C19.5685 15.625 19.2188 15.9748 19.2188 16.4062C19.2188 16.8377 19.5685 17.1875 20 17.1875H24.6779C25.1094 17.1875 25.4591 16.8377 25.4591 16.4062C25.4591 15.9748 25.1094 15.625 24.6779 15.625Z" fill="#7772F1"/>
<path d="M31.2501 20.3125H20C19.5685 20.3125 19.2188 20.6623 19.2188 21.0937C19.2188 21.5252 19.5685 21.875 20 21.875H31.2501C31.6816 21.875 32.0314 21.5252 32.0314 21.0937C32.0314 20.6623 31.6816 20.3125 31.2501 20.3125Z" fill="#7772F1"/>
<path d="M28.5172 24.2914C28.3719 24.1461 28.1703 24.0625 27.9648 24.0625C27.7594 24.0625 27.5578 24.1461 27.4125 24.2914C27.2672 24.4367 27.1836 24.6383 27.1836 24.8437C27.1836 25.0492 27.2672 25.2508 27.4125 25.3961C27.5578 25.5414 27.7594 25.625 27.9648 25.625C28.1703 25.625 28.3719 25.5414 28.5172 25.3961C28.6625 25.2508 28.7461 25.0492 28.7461 24.8437C28.7461 24.6383 28.6625 24.4367 28.5172 24.2914Z" fill="#7772F1"/>
<path d="M24.6779 24.0625H20C19.5685 24.0625 19.2188 24.4123 19.2188 24.8437C19.2188 25.2752 19.5685 25.625 20 25.625H24.6779C25.1094 25.625 25.4591 25.2752 25.4591 24.8437C25.4591 24.4123 25.1094 24.0625 24.6779 24.0625Z" fill="#7772F1"/>
<path d="M31.2501 28.75H20C19.5685 28.75 19.2188 29.0998 19.2188 29.5312C19.2188 29.9627 19.5685 30.3125 20 30.3125H31.2501C31.6816 30.3125 32.0314 29.9627 32.0314 29.5312C32.0314 29.0998 31.6816 28.75 31.2501 28.75Z" fill="#7772F1"/>
<path d="M28.5172 32.7289C28.3719 32.5836 28.1703 32.5 27.9648 32.5C27.7594 32.5 27.5578 32.5836 27.4125 32.7289C27.2672 32.8742 27.1836 33.0758 27.1836 33.2812C27.1836 33.4867 27.2672 33.6883 27.4125 33.8336C27.5578 33.9789 27.7594 34.0625 27.9648 34.0625C28.1703 34.0625 28.3719 33.9789 28.5172 33.8336C28.6625 33.6883 28.7461 33.4867 28.7461 33.2812C28.7461 33.0758 28.6625 32.8742 28.5172 32.7289Z" fill="#7772F1"/>
<path d="M24.6779 32.5H20C19.5685 32.5 19.2188 32.8498 19.2188 33.2812C19.2188 33.7127 19.5685 34.0625 20 34.0625H24.6779C25.1094 34.0625 25.4591 33.7127 25.4591 33.2812C25.4591 32.8498 25.1094 32.5 24.6779 32.5Z" fill="#7772F1"/>
<path d="M32.7532 3.04695H26.7861C25.9236 2.225 24.7575 1.71875 23.4748 1.71875H22.7904C22.2672 0.682967 21.1923 0 19.9999 0C18.8075 0 17.7326 0.682967 17.2093 1.71875H16.5233C15.2406 1.71875 14.0747 2.225 13.2121 3.04695H7.24671C5.14633 3.04695 3.4375 4.75577 3.4375 6.85616V36.1908C3.4375 38.2912 5.14633 40 7.24671 40H32.7531C34.8535 40 36.5624 38.2912 36.5624 36.1908V6.85616C36.5624 4.75577 34.8536 3.04695 32.7532 3.04695ZM16.5234 3.28124H17.7411C18.0925 3.28124 18.4006 3.04663 18.4941 2.70796C18.6804 2.03351 19.2997 1.5625 20 1.5625C20.7003 1.5625 21.3195 2.03351 21.5057 2.70796C21.5993 3.04663 21.9075 3.28124 22.2588 3.28124H23.4748C25.1705 3.28124 26.5663 4.58984 26.7056 6.25007H13.2926C13.4319 4.58984 14.8278 3.28124 16.5234 3.28124ZM34.9999 36.1909C34.9999 37.4297 33.9921 38.4376 32.7532 38.4376H7.24671C6.00789 38.4376 5 37.4297 5 36.1909V6.85616C5 5.61733 6.00789 4.60944 7.24671 4.60944H12.1176C11.8616 5.19632 11.7187 5.84335 11.7187 6.5235V7.03131C11.7187 7.4628 12.0685 7.81256 12.5 7.81256H27.4983C27.9298 7.81256 28.2796 7.4628 28.2796 7.03131V6.5235C28.2796 5.84343 28.1367 5.19632 27.8807 4.60944H32.7532C33.9921 4.60944 34.9999 5.61733 34.9999 6.85616V36.1909Z" fill="#7772F1"/>
<path d="M15.0311 11.6858C14.7261 11.3808 14.2314 11.3808 13.9263 11.6858L10.5855 15.0266L9.55638 13.9974C9.25131 13.6924 8.75662 13.6924 8.45146 13.9974C8.14639 14.3025 8.14639 14.7972 8.45146 15.1023L10.0331 16.684C10.1857 16.8365 10.3856 16.9128 10.5855 16.9128C10.7854 16.9128 10.9854 16.8365 11.1379 16.684L15.0311 12.7908C15.3362 12.4857 15.3362 11.991 15.0311 11.6858Z" fill="#7772F1"/>
<path d="M13.125 28.75H9.375C8.94352 28.75 8.59375 29.0998 8.59375 29.5312V33.2812C8.59375 33.7127 8.94352 34.0625 9.375 34.0625H13.125C13.5565 34.0625 13.9062 33.7127 13.9062 33.2812V29.5312C13.9062 29.0998 13.5565 28.75 13.125 28.75ZM12.3437 32.5H10.1563V30.3125H12.3437V32.5Z" fill="#7772F1"/>
<path d="M13.125 20.3125H9.375C8.94352 20.3125 8.59375 20.6623 8.59375 21.0937V24.8437C8.59375 25.2752 8.94352 25.625 9.375 25.625H13.125C13.5565 25.625 13.9062 25.2752 13.9062 24.8437V21.0937C13.9062 20.6623 13.5565 20.3125 13.125 20.3125ZM12.3437 24.0625H10.1563V21.875H12.3437V24.0625Z" fill="#7772F1"/>
</svg>
