<svg width="40" height="40" viewBox="0 0 40 40" fill="none" xmlns="http://www.w3.org/2000/svg">
<g clip-path="url(#clip0_12149_1916)">
<path d="M13.8657 25.8453C13.7205 25.7 13.5189 25.6172 13.3135 25.6172C13.1079 25.6172 12.9064 25.7001 12.7611 25.8453C12.6158 25.9914 12.5322 26.193 12.5322 26.3977C12.5322 26.6039 12.6157 26.8047 12.7611 26.95C12.9064 27.096 13.1079 27.1789 13.3135 27.1789C13.5189 27.1789 13.7205 27.096 13.8657 26.95C14.0111 26.8047 14.0947 26.6038 14.0947 26.3977C14.0947 26.193 14.0111 25.9914 13.8657 25.8453Z" fill="#7772F1"/>
<path d="M40 26.554C40 24.9763 38.8913 23.6534 37.4123 23.3212C37.7625 22.7959 37.9671 22.1656 37.9671 21.4883C37.9671 19.661 36.4805 18.1744 34.6531 18.1744H25.9594L27.0966 14.798C27.5556 13.4354 27.4459 11.981 26.7879 10.7026C26.1298 9.42435 25.0098 8.48998 23.6344 8.07178L22.2637 7.65514C21.8653 7.53396 21.4431 7.74599 21.3017 8.13678L19.1479 14.0894C18.5366 15.7789 17.331 17.1824 15.7533 18.0415L13.6016 19.2132C13.1388 18.5838 12.3937 18.1744 11.5544 18.1744H0.78125C0.349844 18.1744 0 18.5243 0 18.9557V39.2176C0 39.649 0.349844 39.9988 0.78125 39.9988H11.5544C12.489 39.9988 13.3067 39.4911 13.7478 38.7373L14.8505 39.1698C16.2535 39.72 17.7289 39.9989 19.2357 39.9989H32.8869C34.7142 39.9989 36.2009 38.5122 36.2009 36.6849C36.2009 36.0022 35.9932 35.3672 35.638 34.8393C37.0889 34.4867 38.1697 33.1772 38.1697 31.6194C38.1697 30.9233 37.9534 30.2769 37.5852 29.7429C38.9768 29.35 40 28.0697 40 26.554ZM36.686 28.3054H34.8557H31.2677H28.6505C28.2191 28.3054 27.8692 28.6553 27.8692 29.0867C27.8692 29.5181 28.2191 29.8679 28.6505 29.8679H31.2677H34.8557C35.8215 29.8679 36.6072 30.6537 36.6072 31.6194C36.6072 32.5852 35.8215 33.3709 34.8557 33.3709H32.8869H28.9166H28.6505C28.2191 33.3709 27.8693 33.7208 27.8693 34.1522C27.8693 34.5836 28.2191 34.9334 28.6505 34.9334H28.9166H32.8869C33.8527 34.9334 34.6384 35.7191 34.6384 36.6849C34.6384 37.6507 33.8527 38.4364 32.8869 38.4364H19.2357C17.9249 38.4364 16.6415 38.1937 15.421 37.7151L14.0945 37.1949V29.5301C14.0945 29.0987 13.7447 28.7489 13.3133 28.7489C12.8819 28.7489 12.532 29.0987 12.532 29.5301V37.4586C12.532 37.9976 12.0935 38.4362 11.5544 38.4362H1.5625V19.7369H11.5544C12.0934 19.7369 12.532 20.1754 12.532 20.7145V23.3672C12.532 23.7986 12.8819 24.1485 13.3133 24.1485C13.7447 24.1485 14.0945 23.7986 14.0945 23.3672V20.7239L16.5005 19.4136C18.4139 18.3719 19.8759 16.6698 20.6172 14.621L22.5187 9.36568L23.1798 9.56662C24.1477 9.86092 24.9357 10.5183 25.3987 11.4177C25.8617 12.3172 25.9388 13.3404 25.6159 14.2991L24.1316 18.7061C24.0513 18.9445 24.0907 19.2069 24.2373 19.4112C24.3841 19.6155 24.6203 19.7367 24.8719 19.7367H34.6531C35.6189 19.7367 36.4046 20.5224 36.4046 21.4882C36.4046 22.454 35.6189 23.2397 34.6531 23.2397H28.6505C28.2191 23.2397 27.8692 23.5895 27.8692 24.0209C27.8692 24.4523 28.2191 24.8022 28.6505 24.8022H31.2632C31.2648 24.8022 31.2662 24.8024 31.2677 24.8024H36.686C37.6518 24.8024 38.4375 25.5881 38.4375 26.5539C38.4375 27.5198 37.6518 28.3054 36.686 28.3054Z" fill="#7772F1"/>
<path d="M8.52918 32.4648C7.32254 32.4648 6.34082 33.4465 6.34082 34.6531C6.34082 35.8598 7.32246 36.8415 8.52918 36.8415C9.7359 36.8415 10.7175 35.8598 10.7175 34.6531C10.7175 33.4466 9.73582 32.4648 8.52918 32.4648ZM8.52918 35.279C8.1841 35.279 7.90332 34.9982 7.90332 34.6531C7.90332 34.308 8.1841 34.0273 8.52918 34.0273C8.87426 34.0273 9.15504 34.308 9.15504 34.6531C9.15504 34.9982 8.87426 35.279 8.52918 35.279Z" fill="#7772F1"/>
<path d="M23.8961 0.228906C23.7507 0.0835938 23.5493 0 23.3438 0C23.1383 0 22.9367 0.0835156 22.7915 0.228906C22.6462 0.374219 22.5625 0.575781 22.5625 0.78125C22.5625 0.986719 22.6461 1.18828 22.7915 1.33352C22.9367 1.47891 23.1383 1.5625 23.3438 1.5625C23.5493 1.5625 23.7508 1.47891 23.8961 1.33352C24.0414 1.18828 24.125 0.986719 24.125 0.78125C24.125 0.575781 24.0415 0.374219 23.8961 0.228906Z" fill="#7772F1"/>
<path d="M23.3438 2.91797C22.9123 2.91797 22.5625 3.26781 22.5625 3.69922V5.60031C22.5625 6.03172 22.9123 6.38156 23.3438 6.38156C23.7752 6.38156 24.125 6.03172 24.125 5.60031V3.69922C24.125 3.26781 23.7752 2.91797 23.3438 2.91797Z" fill="#7772F1"/>
<path d="M33.5989 10.2539H28.7812C28.3498 10.2539 28 10.6037 28 11.0352C28 11.4666 28.3498 11.8164 28.7812 11.8164H33.5989C34.0303 11.8164 34.3802 11.4666 34.3802 11.0352C34.3802 10.6038 34.0303 10.2539 33.5989 10.2539Z" fill="#7772F1"/>
<path d="M17.9086 10.2539H13.0908C12.6594 10.2539 12.3096 10.6038 12.3096 11.0352C12.3096 11.4666 12.6593 11.8164 13.0908 11.8164H17.9086C18.34 11.8164 18.6898 11.4666 18.6898 11.0352C18.6898 10.6038 18.34 10.2539 17.9086 10.2539Z" fill="#7772F1"/>
<path d="M19.4794 6.06586L17.2048 3.79125C16.8997 3.48625 16.4051 3.48625 16.0999 3.79125C15.7948 4.09633 15.7948 4.59101 16.0999 4.89617L18.3746 7.17078C18.5272 7.32328 18.7271 7.39961 18.927 7.39961C19.1269 7.39961 19.3269 7.32328 19.4794 7.17078C19.7845 6.8657 19.7845 6.37101 19.4794 6.06586Z" fill="#7772F1"/>
<path d="M30.5888 3.79125C30.2837 3.48625 29.7891 3.48625 29.4839 3.79125L27.2093 6.06586C26.9042 6.37094 26.9042 6.86562 27.2093 7.17078C27.3619 7.32328 27.5618 7.39961 27.7618 7.39961C27.9618 7.39961 28.1616 7.32328 28.3142 7.17078L30.5888 4.89617C30.8939 4.59109 30.8939 4.09641 30.5888 3.79125Z" fill="#7772F1"/>
</g>
<defs>
<clipPath id="clip0_12149_1916">
<rect width="40" height="40" fill="white"/>
</clipPath>
</defs>
</svg>
