<svg width="40" height="40" viewBox="0 0 40 40" fill="none" xmlns="http://www.w3.org/2000/svg">
<g clip-path="url(#clip0_12149_2954)">
<path d="M27.7485 30.8326C27.4831 30.557 26.9932 30.4779 26.6331 30.8224C26.6306 30.8248 26.6281 30.8273 26.6255 30.8298C26.2702 31.1793 26.3344 31.6713 26.6018 31.9451C26.7439 32.0905 26.9488 32.1801 27.1634 32.1801C27.3528 32.1801 27.5496 32.1104 27.7174 31.9476C28.0751 31.6007 28.0142 31.1081 27.7485 30.8326Z" fill="#7772F1"/>
<path d="M34.8238 15.7932C34.6738 15.3886 34.2245 15.1823 33.8199 15.332C33.4154 15.4818 33.2089 15.9312 33.3587 16.3358C34.0331 18.1564 34.375 20.0733 34.375 22.0332C34.375 31.0784 27.0162 38.4371 17.9711 38.4371C14.6147 38.4371 11.3882 37.4307 8.64021 35.5266C8.28575 35.2809 7.79896 35.3692 7.55326 35.7238C7.30748 36.0784 7.39576 36.5651 7.75044 36.8108C10.7611 38.8968 14.2953 39.9994 17.9712 39.9994C22.7702 39.9994 27.2818 38.1306 30.6752 34.7371C34.0686 31.3438 35.9374 26.8321 35.9374 22.0331C35.9373 19.8875 35.5626 17.7881 34.8238 15.7932Z" fill="#7772F1"/>
<path d="M24.02 5.1107C22.0819 4.41773 20.0465 4.06641 17.9701 4.06641C13.1711 4.06641 8.65951 5.93523 5.26608 9.3285C1.87273 12.722 0.00390625 17.2337 0.00390625 22.0326C0.00390625 25.7541 1.13172 29.3246 3.26562 32.358C3.41765 32.5742 3.65945 32.6898 3.90523 32.6898C4.06046 32.6898 4.21726 32.6436 4.3539 32.5474C4.70679 32.2992 4.79163 31.8119 4.54343 31.4591C2.5957 28.6902 1.56617 25.4306 1.56617 22.0325C1.56617 12.9874 8.92498 5.62867 17.97 5.62867C19.8668 5.62867 21.7252 5.94929 23.4939 6.58171C23.9 6.72703 24.3472 6.51546 24.4924 6.10921C24.6377 5.70304 24.4261 5.25601 24.02 5.1107Z" fill="#7772F1"/>
<path d="M39.9356 6.47816C39.8146 6.1862 39.5299 5.99597 39.2138 5.99597H35.1094L35.5508 5.55456C35.8558 5.24956 35.8558 4.75488 35.5508 4.4498C35.2457 4.1448 34.7512 4.1448 34.446 4.4498L33.999 4.89683V0.781214C33.999 0.465355 33.8086 0.180433 33.5168 0.0594962C33.2249 -0.0614411 32.8889 0.00543375 32.6656 0.228793L25.7793 7.11503C25.6328 7.26151 25.5505 7.46019 25.5505 7.66737V10.3771C23.2973 8.90323 20.6997 8.12948 17.9668 8.12948C10.3 8.12948 4.0625 14.367 4.0625 22.0338C4.0625 29.7005 10.3 35.938 17.9668 35.938C20.5115 35.938 23.001 35.244 25.1662 33.9312C25.5351 33.7076 25.6528 33.2272 25.4292 32.8583C25.2056 32.4894 24.7252 32.3715 24.3563 32.5953C22.4353 33.7601 20.2258 34.3757 17.9668 34.3757C11.1614 34.3757 5.62476 28.8391 5.62476 22.0337C5.62476 15.2282 11.1614 9.69167 17.9668 9.69167C20.7457 9.69167 23.3666 10.5924 25.5505 12.2963V13.3452L24.127 14.7687C22.4646 13.3569 20.3136 12.5037 17.9668 12.5037C12.7119 12.5037 8.43687 16.7788 8.43687 22.0336C8.43687 27.2884 12.7119 31.5635 17.9668 31.5635C23.2216 31.5635 27.4967 27.2884 27.4967 22.0336C27.4967 19.6868 26.6436 17.5359 25.2317 15.8734L26.6608 14.4442H27.7C29.384 16.6024 30.3087 19.2872 30.3087 22.0336C30.3087 24.3365 29.6705 26.5827 28.4632 28.5291C28.2357 28.8957 28.3486 29.3773 28.7153 29.6047C28.8435 29.6842 28.9857 29.7221 29.1263 29.7221C29.3877 29.7221 29.643 29.5909 29.7909 29.3526C31.1518 27.1587 31.871 24.6278 31.871 22.0336C31.871 19.3354 31.0785 16.6899 29.6172 14.4442H32.3274C32.5346 14.4442 32.7332 14.3619 32.8798 14.2154L39.766 7.32917C39.9896 7.10605 40.0564 6.77003 39.9356 6.47816ZM25.9346 22.0338C25.9346 26.4271 22.3603 30.0014 17.9669 30.0014C13.5736 30.0014 9.99929 26.4271 9.99929 22.0338C9.99929 17.6404 13.5736 14.0661 17.9669 14.0661C19.8829 14.0661 21.6429 14.746 23.0189 15.8771L21.2398 17.6562C20.3268 16.9717 19.1934 16.5658 17.967 16.5658C14.9519 16.5658 12.499 19.0188 12.499 22.0338C12.499 25.0488 14.952 27.5017 17.967 27.5017C20.9821 27.5017 23.435 25.0487 23.435 22.0338C23.435 20.8074 23.029 19.674 22.3446 18.7609L24.1236 16.9818C25.2546 18.3577 25.9346 20.1177 25.9346 22.0338ZM17.4146 22.5862C17.5672 22.7388 17.767 22.815 17.9669 22.815C18.1668 22.815 18.3667 22.7388 18.5193 22.5862L21.2239 19.8816C21.6333 20.4991 21.8726 21.2389 21.8726 22.0338C21.8726 24.1873 20.1205 25.9394 17.9669 25.9394C15.8133 25.9394 14.0612 24.1873 14.0612 22.0338C14.0612 19.8802 15.8133 18.1281 17.9669 18.1281C18.7618 18.1281 19.5015 18.3674 20.1192 18.7768L17.4146 21.4814C17.1095 21.7864 17.1095 22.281 17.4146 22.5862ZM27.1129 11.783V7.99097L32.4368 2.66707V6.45909L27.1129 11.783ZM32.0041 12.8821H28.2233L33.5472 7.55823H37.328L32.0041 12.8821Z" fill="#7772F1"/>
<path d="M6.35289 33.6156C6.20765 33.4704 6.00617 33.3867 5.8007 33.3867C5.59437 33.3867 5.39289 33.4703 5.24844 33.6156C5.10234 33.7609 5.01953 33.9624 5.01953 34.1679C5.01953 34.3734 5.10234 34.5748 5.24844 34.7202C5.39367 34.8655 5.59445 34.9491 5.8007 34.9491C6.00617 34.9491 6.20765 34.8655 6.35289 34.7202C6.4982 34.5748 6.58187 34.3734 6.58187 34.1679C6.58187 33.9624 6.49828 33.7617 6.35289 33.6156Z" fill="#7772F1"/>
</g>
<defs>
<clipPath id="clip0_12149_2954">
<rect width="40" height="40" fill="white"/>
</clipPath>
</defs>
</svg>
