<svg width="40" height="40" viewBox="0 0 40 40" fill="none" xmlns="http://www.w3.org/2000/svg">
<g clip-path="url(#clip0_12149_2679)">
<path d="M37.791 22.0345C39.2374 19.7423 39.9998 17.1036 39.9998 14.3749C39.9998 6.44859 33.5512 0 25.6248 0C22.9698 0 20.3758 0.729766 18.1233 2.11039C17.7554 2.33586 17.6399 2.8168 17.8655 3.18469C18.0909 3.5525 18.5718 3.66805 18.9398 3.4425C20.9465 2.21258 23.2582 1.5625 25.6249 1.5625C32.6897 1.5625 38.4373 7.31008 38.4373 14.3749C38.4373 16.9372 37.6837 19.4099 36.2577 21.5258C36.0685 21.8064 36.0847 22.1692 36.2793 22.4298L37.1354 25.6248L33.6991 24.704C33.4741 24.6437 33.2338 24.6869 33.044 24.822C30.8691 26.3695 28.3037 27.1874 25.6249 27.1874C24.0989 27.1874 22.6063 26.9209 21.1868 26.3964C20.1875 22.7163 17.2838 19.8126 13.6038 18.8134C13.0792 17.3938 12.8125 15.9015 12.8125 14.375C12.8125 11.982 13.4762 9.64836 14.7318 7.62625C14.9594 7.25969 14.8467 6.77805 14.4802 6.55039C14.1138 6.32281 13.632 6.43539 13.4043 6.80203C11.9948 9.07188 11.2499 11.6905 11.2499 14.375C11.2499 15.7802 11.4516 17.1601 11.8493 18.4906C11.4978 18.4559 11.1416 18.4377 10.7812 18.4377C4.83641 18.4377 0 23.2742 0 29.2189C0 31.3524 0.616875 33.4005 1.78734 35.1659L0.95125 38.2866C0.878984 38.5563 0.956094 38.8439 1.15344 39.0413C1.35078 39.2387 1.63836 39.3157 1.90805 39.2435L5.10609 38.3866C6.80922 39.4431 8.76359 40 10.7812 40C12.8347 40 14.8321 39.4203 16.5575 38.3236C16.9216 38.0921 17.0291 37.6093 16.7977 37.2452C16.5663 36.881 16.0833 36.7735 15.7193 37.0049C14.2448 37.9422 12.5373 38.4375 10.7812 38.4375C8.95305 38.4375 7.18609 37.9033 5.67148 36.8925C5.48453 36.7677 5.25289 36.7295 5.03563 36.7877L2.81063 37.3839L3.38984 35.2223C3.45023 34.9969 3.40672 34.7563 3.27117 34.5663C2.15328 32.9995 1.56242 31.1503 1.56242 29.2188C1.56242 24.1355 5.69797 20.0001 10.7811 20.0001C15.8642 20.0001 19.9998 24.1356 19.9998 29.2188C19.9998 30.3044 19.8132 31.3668 19.4451 32.3766C19.2973 32.782 19.5061 33.2304 19.9115 33.3782C20.3168 33.5259 20.7653 33.3172 20.913 32.9118C21.3439 31.73 21.5623 30.4875 21.5623 29.2188C21.5623 28.8584 21.5442 28.5023 21.5095 28.1509C22.8402 28.5484 24.2202 28.7498 25.6249 28.7498C28.5058 28.7498 31.2702 27.9064 33.6441 26.3068L38.038 27.4841C38.3078 27.5564 38.5953 27.4793 38.7927 27.282C38.9901 27.0846 39.0672 26.797 38.9949 26.5273L37.791 22.0345Z" fill="#7772F1"/>
<path d="M29.6516 16.0391H21.6943C21.2629 16.0391 20.9131 16.3888 20.9131 16.8203C20.9131 19.4449 23.0484 21.5802 25.673 21.5802C28.2976 21.5802 30.4329 19.4449 30.4329 16.8203C30.4329 16.3888 30.083 16.0391 29.6516 16.0391ZM25.673 20.0176C24.1794 20.0176 22.9217 18.9881 22.5722 17.6015H28.7739C28.4243 18.9881 27.1665 20.0176 25.673 20.0176Z" fill="#7772F1"/>
<path d="M31.7584 11.7036C31.532 11.3362 31.0507 11.222 30.6835 11.4482L30.5816 11.5111C30.2146 11.7379 30.1008 12.2193 30.3277 12.5863C30.4755 12.8256 30.7312 12.9571 30.993 12.9571C31.1331 12.9571 31.275 12.9195 31.403 12.8403L31.503 12.7785C31.8704 12.5522 31.9848 12.071 31.7584 11.7036Z" fill="#7772F1"/>
<path d="M21.0241 11.7035C20.7977 11.3362 20.3163 11.222 19.9492 11.4482L19.8473 11.5111C19.4802 11.7379 19.3665 12.2193 19.5934 12.5863C19.7411 12.8255 19.9969 12.9571 20.2587 12.9571C20.3988 12.9571 20.5406 12.9194 20.6686 12.8403L20.7687 12.7785C21.136 12.5521 21.2504 12.0709 21.0241 11.7035Z" fill="#7772F1"/>
<path d="M7.03672 28.6664C6.89141 28.5211 6.68984 28.4375 6.48438 28.4375C6.27891 28.4375 6.07742 28.5211 5.93203 28.6664C5.78672 28.8117 5.70312 29.0133 5.70312 29.2188C5.70312 29.4242 5.78672 29.6258 5.93203 29.7711C6.07734 29.9164 6.27891 30 6.48438 30C6.68984 30 6.89141 29.9164 7.03672 29.7711C7.18203 29.6258 7.26562 29.4242 7.26562 29.2188C7.26562 29.0133 7.18203 28.8117 7.03672 28.6664Z" fill="#7772F1"/>
<path d="M11.3336 28.6664C11.1883 28.5211 10.9867 28.4375 10.7812 28.4375C10.5758 28.4375 10.3743 28.5211 10.2289 28.6664C10.0836 28.8117 10 29.0133 10 29.2188C10 29.4242 10.0836 29.6258 10.2289 29.7711C10.3742 29.9164 10.5758 30 10.7812 30C10.9867 30 11.1883 29.9164 11.3336 29.7711C11.4789 29.6258 11.5625 29.4242 11.5625 29.2188C11.5625 29.0133 11.4789 28.8117 11.3336 28.6664Z" fill="#7772F1"/>
<path d="M15.6305 28.6664C15.4852 28.5211 15.2836 28.4375 15.0781 28.4375C14.8727 28.4375 14.6712 28.5211 14.5258 28.6664C14.3805 28.8117 14.2969 29.0133 14.2969 29.2188C14.2969 29.4242 14.3805 29.6258 14.5258 29.7711C14.6711 29.9164 14.8727 30 15.0781 30C15.2836 30 15.4852 29.9164 15.6305 29.7711C15.7758 29.6258 15.8594 29.4242 15.8594 29.2188C15.8594 29.0133 15.7758 28.8117 15.6305 28.6664Z" fill="#7772F1"/>
<path d="M19.1275 34.932C18.9822 34.7867 18.7807 34.7031 18.5752 34.7031C18.3689 34.7031 18.1682 34.7867 18.0229 34.932C17.8775 35.0773 17.7939 35.2789 17.7939 35.4844C17.7939 35.6898 17.8775 35.8914 18.0229 36.0367C18.1682 36.182 18.3689 36.2656 18.5752 36.2656C18.7807 36.2656 18.9822 36.182 19.1275 36.0367C19.2729 35.8914 19.3564 35.6898 19.3564 35.4844C19.3564 35.2789 19.2729 35.0773 19.1275 34.932Z" fill="#7772F1"/>
<path d="M16.5914 4.18516C16.4461 4.03984 16.2445 3.95703 16.0391 3.95703C15.8328 3.95703 15.632 4.03984 15.4867 4.18516C15.3406 4.33125 15.2578 4.53203 15.2578 4.73828C15.2578 4.94375 15.3406 5.14531 15.4867 5.29063C15.632 5.43594 15.8327 5.51875 16.0391 5.51875C16.2445 5.51875 16.4461 5.43594 16.5914 5.29063C16.7367 5.14531 16.8203 4.94375 16.8203 4.73828C16.8203 4.53203 16.7367 4.33125 16.5914 4.18516Z" fill="#7772F1"/>
</g>
<defs>
<clipPath id="clip0_12149_2679">
<rect width="40" height="40" fill="white"/>
</clipPath>
</defs>
</svg>
