<svg width="40" height="40" viewBox="0 0 40 40" fill="none" xmlns="http://www.w3.org/2000/svg">
<path d="M30.7812 18.834C30.3498 18.834 30 19.1838 30 19.6152V19.7324C30 20.1639 30.3498 20.5137 30.7812 20.5137C31.2127 20.5137 31.5625 20.1638 31.5625 19.7324V19.6152C31.5625 19.1838 31.2127 18.834 30.7812 18.834Z" fill="#7772F1"/>
<path d="M35.7812 14.6767V6.72461C35.7812 5.1307 34.4845 3.83398 32.8906 3.83398C32.2216 3.83398 31.6053 4.06312 31.1149 4.44617L22.7551 7.5775C22.351 7.72883 22.1462 8.17906 22.2975 8.58313C22.415 8.89695 22.7128 9.09055 23.0292 9.09055C23.1203 9.09055 23.2129 9.07453 23.3031 9.04062L30.0073 6.52937C30.003 6.59391 29.9999 6.65883 29.9999 6.72445V15.787C29.9999 16.2184 30.3497 16.5682 30.7812 16.5682C31.2127 16.5682 31.5624 16.2184 31.5624 15.787V6.72445C31.5624 5.99211 32.1582 5.39633 32.8905 5.39633C33.6229 5.39633 34.2187 5.99211 34.2187 6.72445V32.5057C34.2187 33.238 33.6229 33.8338 32.8905 33.8338C32.1582 33.8338 31.5624 33.238 31.5624 32.5057V23.0526C31.5624 22.6212 31.2127 22.2713 30.7812 22.2713C30.3497 22.2713 29.9999 22.6212 29.9999 23.0526V32.5057C29.9999 32.5713 30.0029 32.6362 30.0073 32.7008L10.3125 25.3237V13.9069L18.2425 10.9365C18.6466 10.7852 18.8514 10.3349 18.7001 9.93086C18.5487 9.5268 18.0984 9.32156 17.6944 9.47336L9.38977 12.5841H4.60938C2.06773 12.5841 0 14.6518 0 17.1934V22.0372C0 24.5289 1.98766 26.5638 4.46055 26.6428L7.90297 35.6621C8.01852 35.9648 8.30891 36.1648 8.63289 36.1648H13.1641C13.4212 36.1648 13.6618 36.0384 13.8076 35.8267C13.9534 35.615 13.9857 35.3452 13.8941 35.1051L10.8786 27.2043L31.115 34.7845C31.6054 35.1675 32.2216 35.3966 32.8907 35.3966C34.4846 35.3966 35.7813 34.0999 35.7813 32.506V24.5538C38.1684 24.1775 40 22.1065 40 19.6152C40 17.124 38.1684 15.0529 35.7812 14.6767ZM4.60938 25.084C2.9293 25.084 1.5625 23.7172 1.5625 22.0371V17.1934C1.5625 15.5133 2.9293 14.1465 4.60938 14.1465H8.75V25.084H5H4.60938ZM12.0297 34.6022H9.17086V34.6023L6.13445 26.6465H8.99328L12.0297 34.6022ZM35.7812 22.962V16.2683C37.3014 16.6231 38.4375 17.9885 38.4375 19.6152C38.4375 21.2418 37.3014 22.6073 35.7812 22.962Z" fill="#7772F1"/>
<path d="M21.0709 8.69773C20.9256 8.55242 20.724 8.46875 20.5186 8.46875C20.3131 8.46875 20.1115 8.55234 19.9662 8.69773C19.8209 8.84297 19.7373 9.04453 19.7373 9.25C19.7373 9.45555 19.8209 9.65711 19.9662 9.80234C20.1115 9.94766 20.3131 10.0312 20.5186 10.0312C20.724 10.0312 20.9256 9.94773 21.0709 9.80234C21.2162 9.65711 21.2998 9.45555 21.2998 9.25C21.2998 9.04453 21.2162 8.84297 21.0709 8.69773Z" fill="#7772F1"/>
<path d="M5.70859 17.1625C5.56328 17.0164 5.36172 16.9336 5.15625 16.9336C4.95078 16.9336 4.74922 17.0164 4.60391 17.1625C4.45859 17.3078 4.375 17.5094 4.375 17.7148C4.375 17.9203 4.45859 18.1211 4.60391 18.2672C4.74922 18.4125 4.95078 18.4961 5.15625 18.4961C5.36172 18.4961 5.56328 18.4125 5.70859 18.2672C5.85391 18.1219 5.9375 17.9203 5.9375 17.7148C5.9375 17.5086 5.85391 17.3078 5.70859 17.1625Z" fill="#7772F1"/>
<path d="M6.5625 21.4121H4.0625C3.63102 21.4121 3.28125 21.762 3.28125 22.1934C3.28125 22.6248 3.63102 22.9746 4.0625 22.9746H6.5625C6.99398 22.9746 7.34375 22.6248 7.34375 22.1934C7.34375 21.7619 6.99398 21.4121 6.5625 21.4121Z" fill="#7772F1"/>
</svg>
