<svg width="40" height="40" viewBox="0 0 40 40" fill="none" xmlns="http://www.w3.org/2000/svg">
<g clip-path="url(#clip0_12149_674)">
<path d="M20 9.375C18.4671 9.375 16.9877 9.69461 15.6027 10.325C15.21 10.5038 15.0366 10.967 15.2153 11.3597C15.3941 11.7524 15.8573 11.9258 16.25 11.7471C17.4303 11.2098 18.692 10.9375 20 10.9375C24.997 10.9375 29.0625 15.0029 29.0625 20C29.0625 24.9971 24.997 29.0625 20 29.0625C15.003 29.0625 10.9375 24.9971 10.9375 20C10.9375 18.5409 11.2734 17.1483 11.9358 15.8606C12.1332 15.477 11.9821 15.0059 11.5984 14.8085C11.2148 14.611 10.7437 14.7622 10.5463 15.1459C9.78008 16.6355 9.375 18.3141 9.375 20C9.375 25.8586 14.1413 30.625 20 30.625C25.8587 30.625 30.625 25.8586 30.625 20C30.625 14.1414 25.8587 9.375 20 9.375Z" fill="#7772F1"/>
<path d="M39.4602 18.9591C39.2337 18.6473 38.8505 18.1383 38.3109 17.4841C37.4202 16.4041 35.9681 14.7684 34.1096 13.1089C32.0448 11.2653 29.9328 9.79328 27.8321 8.73367C25.1814 7.39672 22.5462 6.71875 20 6.71875C14.2448 6.71875 9.15102 10.1774 5.89133 13.0787C4.02008 14.7443 2.57289 16.3763 1.68828 17.452C1.13875 18.1203 0.758594 18.6306 0.536406 18.9411C0.063125 19.6025 0 19.7529 0 20C0 20.2591 0.070625 20.3953 0.539766 21.0409C0.76625 21.3527 1.14953 21.8617 1.68906 22.5159C2.57984 23.5959 4.03188 25.2316 5.89039 26.8911C7.95516 28.7347 10.0672 30.2067 12.1679 31.2663C14.8186 32.6033 17.4538 33.2812 20 33.2812C23.9841 33.2812 28.1005 31.6648 32.235 28.4766C32.5767 28.2131 32.6402 27.7226 32.3766 27.3809C32.1133 27.0391 31.6227 26.9757 31.2809 27.2392C27.4262 30.2116 23.6307 31.7188 20 31.7188C14.8599 31.7188 10.2037 28.5902 7.20266 25.9656C4.35602 23.476 2.37242 20.9259 1.7075 19.991C2.34977 19.0723 4.31953 16.5144 7.22547 13.986C10.2166 11.3835 14.8609 8.28125 20 8.28125C25.1401 8.28125 29.7963 11.4098 32.7973 14.0345C35.6452 16.5251 37.6294 19.0764 38.2934 20.0103C37.8525 20.6425 36.7993 22.0192 35.2788 23.6156C34.9813 23.928 34.9933 24.4225 35.3057 24.7202C35.6181 25.0177 36.1126 25.0056 36.4102 24.6932C37.5702 23.4754 38.4306 22.4205 38.9482 21.75C40 20.3874 40 20.2165 40 20C40 19.7409 39.9294 19.6047 39.4602 18.9591Z" fill="#7772F1"/>
<path d="M25.7891 17.2549C25.6481 16.9582 25.3366 16.7812 25.0094 16.8123C24.6823 16.8434 24.4096 17.0759 24.3271 17.3939C24.1666 18.0132 23.6068 18.4456 22.9659 18.4456C22.1905 18.4456 21.5596 17.8148 21.5596 17.0394C21.5596 16.3972 21.993 15.8371 22.6137 15.6774C22.9319 15.5955 23.1648 15.3233 23.1966 14.9962C23.2283 14.6692 23.052 14.3573 22.7554 14.2157C21.8904 13.803 20.9634 13.5938 20 13.5938C16.4676 13.5938 13.5938 16.4676 13.5938 20C13.5938 23.5324 16.4676 26.4062 20 26.4062C23.5324 26.4062 26.4062 23.5324 26.4062 20.0001C26.4062 19.0409 26.1986 18.1173 25.7891 17.2549ZM20 24.8438C17.3291 24.8438 15.1562 22.6709 15.1562 20C15.1562 17.3291 17.3291 15.1562 20 15.1562C20.2148 15.1562 20.4272 15.17 20.6367 15.1973C20.233 15.7082 19.9971 16.3514 19.9971 17.0393C19.9971 18.6762 21.3289 20.008 22.9659 20.008C23.6515 20.008 24.2933 19.7734 24.8037 19.3713C24.8304 19.5783 24.8438 19.788 24.8438 20C24.8438 22.6709 22.6709 24.8438 20 24.8438Z" fill="#7772F1"/>
<path d="M20 0C19.5685 0 19.2188 0.349844 19.2188 0.78125V5C19.2188 5.43141 19.5685 5.78125 20 5.78125C20.4315 5.78125 20.7812 5.43141 20.7812 5V0.78125C20.7812 0.349844 20.4315 0 20 0Z" fill="#7772F1"/>
<path d="M33.387 2.29906C33.0819 1.99406 32.5872 1.99406 32.2821 2.29906L28.5804 6.00086C28.2752 6.30602 28.2753 6.8007 28.5804 7.10578C28.733 7.25828 28.9329 7.33461 29.1328 7.33461C29.3327 7.33461 29.5327 7.25828 29.6852 7.10578L33.387 3.40398C33.692 3.09883 33.692 2.60414 33.387 2.29906Z" fill="#7772F1"/>
<path d="M11.4221 6.00083L7.72037 2.29903C7.41521 1.99411 6.92061 1.99403 6.61553 2.29903C6.31045 2.60419 6.31045 3.09888 6.61553 3.40396L10.3173 7.10575C10.4699 7.25825 10.6697 7.33458 10.8697 7.33458C11.0697 7.33458 11.2696 7.25825 11.4221 7.10575C11.7272 6.8006 11.7272 6.30591 11.4221 6.00083Z" fill="#7772F1"/>
<path d="M20 34.2188C19.5685 34.2188 19.2188 34.5686 19.2188 35V39.2188C19.2188 39.6502 19.5685 40 20 40C20.4315 40 20.7812 39.6502 20.7812 39.2188V35C20.7812 34.5686 20.4315 34.2188 20 34.2188Z" fill="#7772F1"/>
<path d="M11.4221 32.8928C11.117 32.5878 10.6223 32.5878 10.3173 32.8928L6.61553 36.5946C6.31045 36.8998 6.31045 37.3944 6.61553 37.6995C6.76811 37.852 6.96803 37.9283 7.16795 37.9283C7.36787 37.9283 7.56787 37.852 7.72037 37.6995L11.4221 33.9977C11.7273 33.6926 11.7272 33.1979 11.4221 32.8928Z" fill="#7772F1"/>
<path d="M33.3859 36.5965L29.6842 32.8947C29.3791 32.5898 28.8845 32.5897 28.5794 32.8947C28.2743 33.1999 28.2743 33.6946 28.5794 33.9997L32.2811 37.7014C32.4337 37.8539 32.6335 37.9303 32.8335 37.9303C33.0334 37.9303 33.2334 37.8539 33.3859 37.7014C33.691 37.3963 33.691 36.9016 33.3859 36.5965Z" fill="#7772F1"/>
<path d="M13.7779 12.3051C13.6326 12.1597 13.4311 12.0762 13.2256 12.0762C13.0201 12.0762 12.8186 12.1598 12.6732 12.3051C12.5279 12.4504 12.4443 12.652 12.4443 12.8574C12.4443 13.0629 12.5279 13.2645 12.6732 13.4097C12.8186 13.5551 13.0201 13.6387 13.2256 13.6387C13.4311 13.6387 13.6326 13.5551 13.7779 13.4097C13.9232 13.2645 14.0068 13.0629 14.0068 12.8574C14.0068 12.652 13.9232 12.4505 13.7779 12.3051Z" fill="#7772F1"/>
<path d="M34.44 25.5152C34.2947 25.37 34.0932 25.2871 33.8877 25.2871C33.6822 25.2871 33.4807 25.37 33.3354 25.5152C33.19 25.6613 33.1064 25.8621 33.1064 26.0684C33.1064 26.2738 33.19 26.4746 33.3354 26.6207C33.4807 26.7661 33.6822 26.8496 33.8877 26.8496C34.0932 26.8496 34.2947 26.7661 34.44 26.6207C34.5853 26.4746 34.6689 26.2738 34.6689 26.0684C34.6689 25.8621 34.5853 25.6605 34.44 25.5152Z" fill="#7772F1"/>
</g>
<defs>
<clipPath id="clip0_12149_674">
<rect width="40" height="40" fill="white"/>
</clipPath>
</defs>
</svg>
