<svg width="16" height="16" viewBox="0 0 16 16" fill="none" xmlns="http://www.w3.org/2000/svg">
<path fill-rule="evenodd" clip-rule="evenodd" d="M5.66634 1.94857C5.11406 1.94857 4.66634 2.39628 4.66634 2.94857V13.0527C4.66634 13.605 5.11406 14.0527 5.66634 14.0527H10.333C10.8853 14.0527 11.333 13.605 11.333 13.0527V2.94857C11.333 2.39628 10.8853 1.94857 10.333 1.94857H10.2774L10.115 2.3382C10.0115 2.58661 9.76879 2.74842 9.49967 2.74842H6.49967C6.23056 2.74842 5.98783 2.58661 5.88431 2.3382L5.72193 1.94857H5.66634ZM3.33301 2.94857C3.33301 1.6599 4.37768 0.615234 5.66634 0.615234H10.333C11.6217 0.615234 12.6663 1.6599 12.6663 2.94857V13.0527C12.6663 14.3414 11.6217 15.3861 10.333 15.3861H5.66634C4.37768 15.3861 3.33301 14.3414 3.33301 13.0527V2.94857Z" fill="white"/>
</svg>
