<svg width="20" height="20" viewBox="0 0 20 20" fill="none" xmlns="http://www.w3.org/2000/svg">
<g clip-path="url(#clip0_1473_4469)">
<path fill-rule="evenodd" clip-rule="evenodd" d="M9.99577 0.833008C10.456 0.833008 10.8291 1.2061 10.8291 1.66634V9.16634H18.3291C18.7893 9.16634 19.1624 9.53944 19.1624 9.99967C19.1624 10.4599 18.7893 10.833 18.3291 10.833H10.8291V18.333C10.8291 18.7932 10.456 19.1663 9.99577 19.1663C9.53553 19.1663 9.16243 18.7932 9.16243 18.333V10.833H1.66243C1.2022 10.833 0.829102 10.4599 0.829102 9.99967C0.829102 9.53944 1.2022 9.16634 1.66243 9.16634H9.16243V1.66634C9.16243 1.2061 9.53553 0.833008 9.99577 0.833008Z" fill="#7772F1"/>
</g>
<defs>
<clipPath id="clip0_1473_4469">
<rect width="20" height="20" fill="white" transform="translate(-0.00390625)"/>
</clipPath>
</defs>
</svg>
