<svg width="11" height="12" viewBox="0 0 11 12" fill="none" xmlns="http://www.w3.org/2000/svg">
<path fill-rule="evenodd" clip-rule="evenodd" d="M0.362254 0.861278C0.622604 0.600928 1.04471 0.600928 1.30506 0.861278L5.50032 5.05654L9.69559 0.861277C9.95594 0.600928 10.378 0.600928 10.6384 0.861278C10.8987 1.12163 10.8987 1.54374 10.6384 1.80409L6.44313 5.99934L10.6384 10.1946C10.8987 10.455 10.8987 10.8771 10.6384 11.1374C10.378 11.3978 9.95594 11.3978 9.69559 11.1374L5.50032 6.94215L1.30506 11.1374C1.04471 11.3978 0.622604 11.3978 0.362255 11.1374C0.101905 10.8771 0.101905 10.455 0.362254 10.1946L4.55751 5.99934L0.362254 1.80409C0.101905 1.54374 0.101905 1.12163 0.362254 0.861278Z" fill="#9A9CA5"/>
</svg>
